  0
SECTION
  2
HEADER
  9
$ACADVER
  1
AC1015
  9
$ACADMAINTVER
 70
     6
  9
$DWGCODEPAGE
  3
ANSI_1252
  9
$INSBASE
 10
0.0
 20
0.0
 30
0.0
  9
$EXTMIN
 10
0.0
 20
0.0
 30
0.0
  9
$EXTMAX
 10
55.0
 20
42.5
 30
0.0
  9
$LIMMIN
 10
0.0
 20
0.0
  9
$LIMMAX
 10
55.0
 20
42.5
  9
$ORTHOMODE
 70
     0
  9
$REGENMODE
 70
     1
  9
$FILLMODE
 70
     1
  9
$QTEXTMODE
 70
     0
  9
$MIRRTEXT
 70
     1
  9
$LTSCALE
 40
5.0
  9
$ATTMODE
 70
     1
  9
$TEXTSIZE
 40
0.625
  9
$TRACEWID
 40
0.05
  9
$TEXTSTYLE
  7
Standard
  9
$CLAYER
  8
0
  9
$CELTYPE
  6
ByLayer
  9
$CECOLOR
 62
   256
  9
$CELTSCALE
 40
1.0
  9
$DISPSILH
 70
     0
  9
$DIMSCALE
 40
1.0
  9
$DIMASZ
 40
0.65
  9
$DIMEXO
 40
0.25
  9
$DIMDLI
 40
0.38
  9
$DIMRND
 40
0.0
  9
$DIMDLE
 40
0.0
  9
$DIMEXE
 40
0.625
  9
$DIMTP
 40
0.0
  9
$DIMTM
 40
0.0
  9
$DIMTXT
 40
0.625
  9
$DIMCEN
 40
0.09
  9
$DIMTSZ
 40
0.0
  9
$DIMTOL
 70
     0
  9
$DIMLIM
 70
     0
  9
$DIMTIH
 70
     1
  9
$DIMTOH
 70
     1
  9
$DIMSE1
 70
     0
  9
$DIMSE2
 70
     0
  9
$DIMTAD
 70
     0
  9
$DIMZIN
 70
     0
  9
$DIMBLK
  1

  9
$DIMASO
 70
     1
  9
$DIMSHO
 70
     1
  9
$DIMPOST
  1

  9
$DIMAPOST
  1

  9
$DIMALT
 70
     0
  9
$DIMALTD
 70
     2
  9
$DIMALTF
 40
25.4
  9
$DIMLFAC
 40
1.0
  9
$DIMTOFL
 70
     0
  9
$DIMTVP
 40
0.0
  9
$DIMTIX
 70
     0
  9
$DIMSOXD
 70
     0
  9
$DIMSAH
 70
     0
  9
$DIMBLK1
  1

  9
$DIMBLK2
  1

  9
$DIMSTYLE
  2
Standard
  9
$DIMCLRD
 70
     0
  9
$DIMCLRE
 70
     0
  9
$DIMCLRT
 70
     0
  9
$DIMTFAC
 40
1.0
  9
$DIMGAP
 40
0.3
  9
$DIMJUST
 70
     0
  9
$DIMSD1
 70
     0
  9
$DIMSD2
 70
     0
  9
$DIMTOLJ
 70
     1
  9
$DIMTZIN
 70
     0
  9
$DIMALTZ
 70
     0
  9
$DIMALTTZ
 70
     0
  9
$DIMUPT
 70
     0
  9
$DIMDEC
 70
     3
  9
$DIMTDEC
 70
     3
  9
$DIMALTU
 70
     2
  9
$DIMALTTD
 70
     2
  9
$DIMTXSTY
  7
Standard
  9
$DIMAUNIT
 70
     0
  9
$DIMADEC
 70
     2
  9
$DIMALTRND
 40
0.0
  9
$DIMAZIN
 70
     0
  9
$DIMDSEP
 70
    46
  9
$DIMATFIT
 70
     3
  9
$DIMFRAC
 70
     0
  9
$DIMLDRBLK
  1

  9
$DIMLUNIT
 70
     2
  9
$DIMLWD
 70
    -2
  9
$DIMLWE
 70
    -2
  9
$DIMTMOVE
 70
     0
  9
$LUNITS
 70
     2
  9
$LUPREC
 70
     2
  9
$SKETCHINC
 40
0.1
  9
$FILLETRAD
 40
0.5
  9
$AUNITS
 70
     0
  9
$AUPREC
 70
     2
  9
$MENU
  1
.
  9
$ELEVATION
 40
0.0
  9
$PELEVATION
 40
0.0
  9
$THICKNESS
 40
0.0
  9
$LIMCHECK
 70
     0
  9
$CHAMFERA
 40
0.5
  9
$CHAMFERB
 40
0.5
  9
$CHAMFERC
 40
1.0
  9
$CHAMFERD
 40
0.0
  9
$SKPOLY
 70
     0
  9
$TDCREATE
 40
2456993.616885371
  9
$TDUCREATE
 40
2456993.825218704
  9
$TDUPDATE
 40
2456993.616886088
  9
$TDUUPDATE
 40
2456993.825219421
  9
$TDINDWG
 40
0.0000000116
  9
$TDUSRTIMER
 40
0.0000000116
  9
$USRTIMER
 70
     1
  9
$ANGBASE
 50
0.0
  9
$ANGDIR
 70
     0
  9
$PDMODE
 70
     0
  9
$PDSIZE
 40
-1.0
  9
$PLINEWID
 40
0.0
  9
$SPLFRAME
 70
     0
  9
$SPLINETYPE
 70
     6
  9
$SPLINESEGS
 70
     8
  9
$HANDSEED
  5
4C
  9
$SURFTAB1
 70
     6
  9
$SURFTAB2
 70
     6
  9
$SURFTYPE
 70
     6
  9
$SURFU
 70
     6
  9
$SURFV
 70
     6
  9
$UCSBASE
  2

  9
$UCSNAME
  2

  9
$UCSORG
 10
0.0
 20
0.0
 30
0.0
  9
$UCSXDIR
 10
1.0
 20
0.0
 30
0.0
  9
$UCSYDIR
 10
0.0
 20
1.0
 30
0.0
  9
$UCSORTHOREF
  2

  9
$UCSORTHOVIEW
 70
     0
  9
$UCSORGTOP
 10
0.0
 20
0.0
 30
0.0
  9
$UCSORGBOTTOM
 10
0.0
 20
0.0
 30
0.0
  9
$UCSORGLEFT
 10
0.0
 20
0.0
 30
0.0
  9
$UCSORGRIGHT
 10
0.0
 20
0.0
 30
0.0
  9
$UCSORGFRONT
 10
0.0
 20
0.0
 30
0.0
  9
$UCSORGBACK
 10
0.0
 20
0.0
 30
0.0
  9
$PUCSBASE
  2

  9
$PUCSNAME
  2

  9
$PUCSORG
 10
0.0
 20
0.0
 30
0.0
  9
$PUCSXDIR
 10
1.0
 20
0.0
 30
0.0
  9
$PUCSYDIR
 10
0.0
 20
1.0
 30
0.0
  9
$PUCSORTHOREF
  2

  9
$PUCSORTHOVIEW
 70
     0
  9
$PUCSORGTOP
 10
0.0
 20
0.0
 30
0.0
  9
$PUCSORGBOTTOM
 10
0.0
 20
0.0
 30
0.0
  9
$PUCSORGLEFT
 10
0.0
 20
0.0
 30
0.0
  9
$PUCSORGRIGHT
 10
0.0
 20
0.0
 30
0.0
  9
$PUCSORGFRONT
 10
0.0
 20
0.0
 30
0.0
  9
$PUCSORGBACK
 10
0.0
 20
0.0
 30
0.0
  9
$USERI1
 70
     0
  9
$USERI2
 70
     0
  9
$USERI3
 70
     0
  9
$USERI4
 70
     0
  9
$USERI5
 70
     0
  9
$USERR1
 40
0.0
  9
$USERR2
 40
0.0
  9
$USERR3
 40
0.0
  9
$USERR4
 40
0.0
  9
$USERR5
 40
0.0
  9
$WORLDVIEW
 70
     1
  9
$SHADEDGE
 70
     3
  9
$SHADEDIF
 70
    70
  9
$TILEMODE
 70
     1
  9
$MAXACTVP
 70
    64
  9
$PINSBASE
 10
0.0
 20
0.0
 30
0.0
  9
$PLIMCHECK
 70
     0
  9
$PEXTMIN
 10
1.0000000000E+20
 20
1.0000000000E+20
 30
1.0000000000E+20
  9
$PEXTMAX
 10
-1.0000000000E+20
 20
-1.0000000000E+20
 30
-1.0000000000E+20
  9
$PLIMMIN
 10
0.0
 20
0.0
  9
$PLIMMAX
 10
12.0
 20
9.0
  9
$UNITMODE
 70
     0
  9
$VISRETAIN
 70
     1
  9
$PLINEGEN
 70
     0
  9
$PSLTSCALE
 70
     1
  9
$TREEDEPTH
 70
  3020
  9
$CMLSTYLE
  2
Standard
  9
$CMLJUST
 70
     0
  9
$CMLSCALE
 40
1.0
  9
$PROXYGRAPHICS
 70
     1
  9
$MEASUREMENT
 70
     0
  9
$CELWEIGHT
370
    -1
  9
$ENDCAPS
280
     0
  9
$JOINSTYLE
280
     0
  9
$LWDISPLAY
290
     1
  9
$INSUNITS
 70
     1
  9
$HYPERLINKBASE
  1

  9
$STYLESHEET
  1

  9
$XEDIT
290
     1
  9
$CEPSNTYPE
380
     0
  9
$PSTYLEMODE
290
     1
  9
$FINGERPRINTGUID
  2
{2249A32A-1076-49C7-A3BB-575271C26275}
  9
$VERSIONGUID
  2
{FAEB1C32-E019-11D5-929B-00C0DF256EC4}
  9
$EXTNAMES
290
     1
  9
$PSVPSCALE
 40
0.0
  9
$OLESTARTUP
290
     0
  0
ENDSEC
  0
SECTION
  2
CLASSES
  0
CLASS
  1
ACDBDICTIONARYWDFLT
  2
AcDbDictionaryWithDefault
  3
ObjectDBX Classes
 90
        0
280
     0
281
     0
  0
CLASS
  1
VISUALSTYLE
  2
AcDbVisualStyle
  3
ObjectDBX Classes
 90
     4095
280
     0
281
     0
  0
CLASS
  1
MATERIAL
  2
AcDbMaterial
  3
ObjectDBX Classes
 90
     1153
280
     0
281
     0
  0
CLASS
  1
ACDBPLACEHOLDER
  2
AcDbPlaceHolder
  3
ObjectDBX Classes
 90
        0
280
     0
281
     0
  0
CLASS
  1
LAYOUT
  2
AcDbLayout
  3
ObjectDBX Classes
 90
        0
280
     0
281
     0
  0
ENDSEC
  0
SECTION
  2
TABLES
  0
TABLE
  2
VPORT
  5
8
330
0
100
AcDbSymbolTable
 70
     1
  0
VPORT
  5
29
330
8
100
AcDbSymbolTableRecord
100
AcDbViewportTableRecord
  2
*Active
 70
     0
 10
0.0
 20
0.0
 11
1.0
 21
1.0
 12
27.5
 22
21.25
 13
0.0
 23
0.0
 14
0.5
 24
0.5
 15
0.5
 25
0.5
 16
0.0
 26
0.0
 36
1.0
 17
0.0
 27
0.0
 37
0.0
 40
42.5
 41
1.2941176471
 42
50.0
 43
0.0
 44
0.0
 50
0.0
 51
0.0
 71
     0
 72
  2000
 73
     1
 74
     3
 75
     0
 76
     0
 77
     0
 78
     0
281
     0
 65
     1
110
0.0
120
0.0
130
0.0
111
1.0
121
0.0
131
0.0
112
0.0
122
1.0
132
0.0
 79
     0
146
0.0
  0
ENDTAB
  0
TABLE
  2
LTYPE
  5
5
330
0
100
AcDbSymbolTable
 70
     6
  0
LTYPE
  5
14
330
5
100
AcDbSymbolTableRecord
100
AcDbLinetypeTableRecord
  2
ByBlock
 70
     0
  3

 72
    65
 73
     0
 40
0.0
  0
LTYPE
  5
15
330
5
100
AcDbSymbolTableRecord
100
AcDbLinetypeTableRecord
  2
ByLayer
 70
     0
  3

 72
    65
 73
     0
 40
0.0
  0
LTYPE
  5
16
330
5
100
AcDbSymbolTableRecord
100
AcDbLinetypeTableRecord
  2
Continuous
 70
     0
  3
Solid line
 72
    65
 73
     0
 40
0.0
  0
LTYPE
  5
3F
330
5
100
AcDbSymbolTableRecord
100
AcDbLinetypeTableRecord
  2
HIDDEN
 70
     0
  3
Hidden __ __ __ __ __ __ __ __ __ __ __ __ __ __
 72
    65
 73
     2
 40
0.075
 49
0.05
 74
     0
 49
-0.025
 74
     0
  0
LTYPE
  5
40
330
5
100
AcDbSymbolTableRecord
100
AcDbLinetypeTableRecord
  2
PHANTOM
 70
     0
  3
Phantom ______  __  __  ______  __  __  ______
 72
    65
 73
     6
 40
0.5
 49
0.25
 74
     0
 49
-0.05
 74
     0
 49
0.05
 74
     0
 49
-0.05
 74
     0
 49
0.05
 74
     0
 49
-0.05
 74
     0
  0
LTYPE
  5
41
330
5
100
AcDbSymbolTableRecord
100
AcDbLinetypeTableRecord
  2
CENTER
 70
     0
  3
Center ____ _ ____ _ ____ _ ____ _ ____ _ ____
 72
    65
 73
     4
 40
0.4
 49
0.25
 74
     0
 49
-0.05
 74
     0
 49
0.05
 74
     0
 49
-0.05
 74
     0
  0
LTYPE
  5
42
330
5
100
AcDbSymbolTableRecord
100
AcDbLinetypeTableRecord
  2
CENTERX2
 70
     0
  3
Center (2x) ________  __  ________  __  _____
 72
    65
 73
     4
 40
0.8
 49
0.5
 74
     0
 49
-0.1
 74
     0
 49
0.1
 74
     0
 49
-0.1
 74
     0
  0
LTYPE
  5
43
330
5
100
AcDbSymbolTableRecord
100
AcDbLinetypeTableRecord
  2
DOT2
 70
     0
  3
Dot (.5x) ........................................
 72
    65
 73
     2
 40
0.025
 49
0.0
 74
     0
 49
-0.025
 74
     0
  0
ENDTAB
  0
TABLE
  2
LAYER
  5
2
330
0
100
AcDbSymbolTable
 70
     1
  0
LAYER
  5
10
330
2
100
AcDbSymbolTableRecord
100
AcDbLayerTableRecord
  2
0
 70
     0
 62
     7
  6
Continuous
370
    -3
390
F
  0
ENDTAB
  0
TABLE
  2
STYLE
  5
3
330
0
100
AcDbSymbolTable
 70
     1
  0
STYLE
  5
11
330
3
100
AcDbSymbolTableRecord
100
AcDbTextStyleTableRecord
  2
Standard
 70
     0
 40
0.0
 41
1.0
 50
0.0
 71
     0
 42
0.625
  3
txt
  4

  0
ENDTAB
  0
TABLE
  2
VIEW
  5
6
330
0
100
AcDbSymbolTable
 70
     0
  0
ENDTAB
  0
TABLE
  2
UCS
  5
7
330
0
100
AcDbSymbolTable
 70
     0
  0
ENDTAB
  0
TABLE
  2
APPID
  5
9
330
0
100
AcDbSymbolTable
 70
     1
  0
APPID
  5
12
330
9
100
AcDbSymbolTableRecord
100
AcDbRegAppTableRecord
  2
ACAD
 70
     0
  0
ENDTAB
  0
TABLE
  2
DIMSTYLE
  5
A
330
0
100
AcDbSymbolTable
 70
     1
100
AcDbDimStyleTable
  0
DIMSTYLE
105
27
330
A
100
AcDbSymbolTableRecord
100
AcDbDimStyleTableRecord
  2
Standard
 70
     0
178
     0
340
11
  0
ENDTAB
  0
TABLE
  2
BLOCK_RECORD
  5
1
330
0
100
AcDbSymbolTable
 70
     1
  0
BLOCK_RECORD
  5
1F
330
1
100
AcDbSymbolTableRecord
100
AcDbBlockTableRecord
  2
*Model_Space
340
22
  0
BLOCK_RECORD
  5
1B
330
1
100
AcDbSymbolTableRecord
100
AcDbBlockTableRecord
  2
*Paper_Space
340
1E
  0
BLOCK_RECORD
  5
23
330
1
100
AcDbSymbolTableRecord
100
AcDbBlockTableRecord
  2
*Paper_Space0
340
26
  0
ENDTAB
  0
ENDSEC
  0
SECTION
  2
BLOCKS
  0
BLOCK
  5
20
330
1F
100
AcDbEntity
  8
0
100
AcDbBlockBegin
  2
*Model_Space
 70
     0
 10
0.0
 20
0.0
 30
0.0
  3
*Model_Space
  1

  0
ENDBLK
  5
21
330
1F
100
AcDbEntity
  8
0
100
AcDbBlockEnd
  0
BLOCK
  5
1C
330
1B
100
AcDbEntity
 67
     1
  8
0
100
AcDbBlockBegin
  2
*Paper_Space
 70
     0
 10
0.0
 20
0.0
 30
0.0
  3
*Paper_Space
  1

  0
ENDBLK
  5
1D
330
1B
100
AcDbEntity
 67
     1
  8
0
100
AcDbBlockEnd
  0
BLOCK
  5
24
330
23
100
AcDbEntity
  8
0
100
AcDbBlockBegin
  2
*Paper_Space0
 70
     0
 10
0.0
 20
0.0
 30
0.0
  3
*Paper_Space0
  1

  0
ENDBLK
  5
25
330
23
100
AcDbEntity
  8
0
100
AcDbBlockEnd
  0
ENDSEC
  0
SECTION
  2
ENTITIES
  0
LINE
  5
44
330
1F
100
AcDbEntity
  8
0
  6
Continuous
 62
     7
370
    15
100
AcDbLine
 10
34.0620036289
 20
21.3235793703
 30
0.0
 11
35.0620036289
 21
21.3235793703
 31
0.0
  0
SPLINE
  5
45
330
1F
100
AcDbEntity
  8
0
  6
Continuous
 62
     7
370
    15
100
AcDbSpline
210
0.0
220
0.0
230
1.0
 70
     8
 71
     3
 72
   124
 73
   120
 74
     0
 42
0.00000001
 43
0.00000001
 12
1.0
 22
0.0
 32
0.0
 13
1.0
 23
0.0
 33
0.0
 40
0.0
 40
0.0
 40
0.0
 40
0.0
 40
0.001953125
 40
0.00390625
 40
0.005859375
 40
0.0078125
 40
0.0078125
 40
0.009765625
 40
0.009765625
 40
0.01171875
 40
0.013671875
 40
0.015625
 40
0.015625
 40
0.017578125
 40
0.017578125
 40
0.0195312499999999
 40
0.0214843749999999
 40
0.0234374999999999
 40
0.0234374999999999
 40
0.0253906249999999
 40
0.0253906249999999
 40
0.0273437499999999
 40
0.0273437499999999
 40
0.0312499999999999
 40
0.0312499999999999
 40
0.0351562499999999
 40
0.0351562499999999
 40
0.0390624999999999
 40
0.0390624999999999
 40
0.0429687499999999
 40
0.0429687499999999
 40
0.046875
 40
0.046875
 40
0.0546875
 40
0.0546875
 40
0.0625
 40
0.0625
 40
0.0703125
 40
0.0703125
 40
0.078125
 40
0.078125
 40
0.09375
 40
0.09375
 40
0.125
 40
0.125
 40
0.1562500000000001
 40
0.1562500000000001
 40
0.1875000000000001
 40
0.1875000000000001
 40
0.2187500000000001
 40
0.2187500000000001
 40
0.2500000000000002
 40
0.2500000000000002
 40
0.3125000000000003
 40
0.3125000000000003
 40
0.3750000000000005
 40
0.3750000000000005
 40
0.4375000000000006
 40
0.4375000000000006
 40
0.5000000000000008
 40
0.5000000000000008
 40
0.562500000000001
 40
0.562500000000001
 40
0.6250000000000011
 40
0.6250000000000011
 40
0.6875000000000013
 40
0.6875000000000013
 40
0.7500000000000016
 40
0.7500000000000016
 40
0.7812500000000016
 40
0.7812500000000016
 40
0.8125000000000017
 40
0.8125000000000017
 40
0.8437500000000017
 40
0.8437500000000017
 40
0.875000000000002
 40
0.875000000000002
 40
0.890625000000002
 40
0.890625000000002
 40
0.906250000000002
 40
0.906250000000002
 40
0.914062500000002
 40
0.914062500000002
 40
0.921875000000002
 40
0.921875000000002
 40
0.9296875000000019
 40
0.9296875000000019
 40
0.9375000000000019
 40
0.9375000000000019
 40
0.9453125000000019
 40
0.9453125000000019
 40
0.9531250000000019
 40
0.9531250000000019
 40
0.9570312500000019
 40
0.9570312500000019
 40
0.9609375000000019
 40
0.9609375000000019
 40
0.9648437500000019
 40
0.9648437500000019
 40
0.9687500000000019
 40
0.9687500000000019
 40
0.9726562500000019
 40
0.9726562500000019
 40
0.9765625000000018
 40
0.9765625000000018
 40
0.9804687500000018
 40
0.9804687500000018
 40
0.9843750000000018
 40
0.9843750000000018
 40
0.9863281250000016
 40
0.9882812500000013
 40
0.9902343750000011
 40
0.9902343750000011
 40
0.9921875000000009
 40
0.9921875000000009
 40
0.9941406250000007
 40
0.9960937500000004
 40
0.9980468750000002
 40
1.0
 40
1.0
 40
1.0
 40
1.0
 10
10.32342095173447
 20
13.05586283484241
 30
0.0
 10
10.33751313108493
 20
13.05586283484241
 30
0.0
 10
10.36560152150435
 20
13.05586283645653
 30
0.0
 10
10.41106343551149
 20
13.05586748049947
 30
0.0
 10
10.46144543394395
 20
13.05588134435522
 30
0.0
 10
10.49802300843048
 20
13.05589974653611
 30
0.0
 10
10.53527463791506
 20
13.05592421552699
 30
0.0
 10
10.55419663896815
 20
13.05593948341699
 30
0.0
 10
10.59149946476653
 20
13.0559775535541
 30
0.0
 10
10.62825778864518
 20
13.05602315804746
 30
0.0
 10
10.67998420106825
 20
13.05611851290376
 30
0.0
 10
10.71211265366566
 20
13.05620290648495
 30
0.0
 10
10.74357394421129
 20
13.05629912182163
 30
0.0
 10
10.75898964002206
 20
13.0563531403619
 30
0.0
 10
10.79011357682958
 20
13.05647438993089
 30
0.0
 10
10.82154829511617
 20
13.05660885198262
 30
0.0
 10
10.87112861173969
 20
13.05685429800773
 30
0.0
 10
10.905824067026
 20
13.05704980320545
 30
0.0
 10
10.94086493090366
 20
13.05726257970989
 30
0.0
 10
10.95854989833522
 20
13.05737760361723
 30
0.0
 10
10.99334133993375
 20
13.05762623788812
 30
0.0
 10
11.01041536340801
 20
13.05775984825863
 30
0.0
 10
11.06034608549765
 20
13.05819050307938
 30
0.0
 10
11.09197835468514
 20
13.05851738047027
 30
0.0
 10
11.15733500482231
 20
13.0592608241124
 30
0.0
 10
11.19101209173031
 20
13.05967739052273
 30
0.0
 10
11.25866820658989
 20
13.06061006004817
 30
0.0
 10
11.29254861905919
 20
13.06112616329255
 30
0.0
 10
11.35961235347161
 20
13.06226745015582
 30
0.0
 10
11.3928193921125
 20
13.06289263365893
 30
0.0
 10
11.45919225898926
 20
13.06426132002658
 30
0.0
 10
11.49239058039008
 20
13.0650048227325
 30
0.0
 10
11.59243724320737
 20
13.0674262247063
 30
0.0
 10
11.65968138835455
 20
13.06929517142824
 30
0.0
 10
11.79340263530781
 20
13.07361038501383
 30
0.0
 10
11.85995601005936
 20
13.07605664801086
 30
0.0
 10
11.99334502434214
 20
13.08158953497281
 30
0.0
 10
12.06017206605261
 20
13.08467616405233
 30
0.0
 10
12.19370552684493
 20
13.09154804918541
 30
0.0
 10
12.26039698477372
 20
13.09533330655855
 30
0.0
 10
12.46038387663446
 20
13.10781681311579
 30
0.0
 10
12.59368397165967
 20
13.11764530484244
 30
0.0
 10
12.99312562502297
 20
13.15219843750593
 30
0.0
 10
13.25877625203279
 20
13.18203117350388
 30
0.0
 10
13.78799869020358
 20
13.25724339058827
 30
0.0
 10
14.051488150763
 20
13.30261969088346
 30
0.0
 10
14.57519969679518
 20
13.40960475111027
 30
0.0
 10
14.83539207954664
 20
13.47120663050671
 30
0.0
 10
15.35151621922518
 20
13.61023252783249
 30
0.0
 10
15.60744413335273
 20
13.6876484923002
 30
0.0
 10
16.11439697654209
 20
13.8570912051651
 30
0.0
 10
16.36542449995299
 20
13.94910776181902
 30
0.0
 10
17.11079169350155
 20
14.24454682225754
 30
0.0
 10
17.59728000492319
 20
14.46733168196252
 30
0.0
 10
18.5514466664035
 20
14.94942908884013
 30
0.0
 10
19.01920719626378
 20
15.20866296192703
 30
0.0
 10
19.94130955848548
 20
15.74956925222331
 30
0.0
 10
20.39569700027047
 20
16.03125277319024
 30
0.0
 10
21.29761695886339
 20
16.6051798900161
 30
0.0
 10
21.74516670377747
 20
16.89746129762677
 30
0.0
 10
22.64025787687771
 20
17.4819809186224
 30
0.0
 10
23.08780762268122
 20
17.77426228519347
 30
0.0
 10
23.9897275866999
 20
18.34818946912885
 30
0.0
 10
24.44411501100102
 20
18.62987286157415
 30
0.0
 10
25.36621752873155
 20
19.17077931484179
 30
0.0
 10
25.83397809714106
 20
19.43001288940074
 30
0.0
 10
26.78814425204279
 20
19.91211064407865
 30
0.0
 10
27.27463301710414
 20
20.13489677555383
 30
0.0
 10
28.02000024329897
 20
20.43033388101542
 30
0.0
 10
28.27102667021101
 20
20.52235146693377
 30
0.0
 10
28.77798128537942
 20
20.69179419157039
 30
0.0
 10
29.03390657708558
 20
20.76920928801678
 30
0.0
 10
29.55003107570378
 20
20.90823609492434
 30
0.0
 10
29.81022676559377
 20
20.96983718018038
 30
0.0
 10
30.33392786583966
 20
21.07682261963265
 30
0.0
 10
30.59740981766754
 20
21.12219874415377
 30
0.0
 10
30.99434302507589
 20
21.17860793438629
 30
0.0
 10
31.12690341997033
 20
21.1954778058578
 30
0.0
 10
31.39244294673945
 20
21.22555457446143
 30
0.0
 10
31.52552628255187
 20
21.23876146329846
 30
0.0
 10
31.72509626316639
 20
21.25603801953105
 30
0.0
 10
31.79169933368688
 20
21.26137521355756
 30
0.0
 10
31.92509984891674
 20
21.27124949435301
 30
0.0
 10
31.99182883983435
 20
21.27578658273447
 30
0.0
 10
32.12504319854278
 20
21.28410890871244
 30
0.0
 10
32.19158107510619
 20
21.28789414733209
 30
0.0
 10
32.32511470333024
 20
21.29476602760454
 30
0.0
 10
32.39210812782034
 20
21.29785267046847
 30
0.0
 10
32.52576829039454
 20
21.30338556678364
 30
0.0
 10
32.59237714286359
 20
21.30583182188869
 30
0.0
 10
32.72541219192318
 20
21.31014702754623
 30
0.0
 10
32.79187961188862
 20
21.31201597843889
 30
0.0
 10
32.89260129661568
 20
21.3144373843456
 30
0.0
 10
32.926342993915
 20
21.31518088746182
 30
0.0
 10
32.99380769863986
 20
21.31654957266281
 30
0.0
 10
33.02750305227106
 20
21.31717475471746
 30
0.0
 10
33.09413775714623
 20
21.31831604015867
 30
0.0
 10
33.12705692393959
 20
21.31883214352325
 30
0.0
 10
33.19257116244771
 20
21.31976481466046
 30
0.0
 10
33.22519973113759
 20
21.32018138244026
 30
0.0
 10
33.29173675382837
 20
21.32092482634465
 30
0.0
 10
33.32571365387012
 20
21.32125170248389
 30
0.0
 10
33.39461655704478
 20
21.32182590720412
 30
0.0
 10
33.4295135734277
 20
21.32207323577119
 30
0.0
 10
33.49740450681389
 20
21.32249878951433
 30
0.0
 10
33.53021837326558
 20
21.32267701460397
 30
0.0
 10
33.59381895809613
 20
21.32297510811316
 30
0.0
 10
33.62462158227761
 20
21.32309497652722
 30
0.0
 10
33.67279427796206
 20
21.32323929938203
 30
0.0
 10
33.70564767754376
 20
21.32332369276628
 30
0.0
 10
33.75813641545305
 20
21.32341904717766
 30
0.0
 10
33.79502399340561
 20
21.32346465136658
 30
0.0
 10
33.8322838309664
 20
21.32350272124024
 30
0.0
 10
33.85109843826319
 20
21.32351798901908
 30
0.0
 10
33.88807766232956
 20
21.32354245787219
 30
0.0
 10
33.92433609518152
 20
21.3235608600031
 30
0.0
 10
33.9743912977351
 20
21.32357472407176
 30
0.0
 10
34.01977509208256
 20
21.32357936849098
 30
0.0
 10
34.0479114495883
 20
21.32357937028258
 30
0.0
 10
34.06200362894582
 20
21.32357937028258
 30
0.0
  0
LINE
  5
46
330
1F
100
AcDbEntity
  8
0
  6
Continuous
 62
     7
370
    15
100
AcDbLine
 10
9.3234209517
 20
13.0558628348
 30
0.0
 11
10.3234209517
 21
13.0558628348
 31
0.0
  0
LINE
  5
47
330
1F
100
AcDbEntity
  8
0
  6
Continuous
 62
     7
370
    15
100
AcDbLine
 10
9.3234209517
 20
32.7409022049
 30
0.0
 11
9.3234209517
 21
13.0558628348
 31
0.0
  0
LINE
  5
48
330
1F
100
AcDbEntity
  8
0
  6
Continuous
 62
     7
370
    15
100
AcDbLine
 10
10.3234209517
 20
32.7409022049
 30
0.0
 11
9.3234209517
 21
32.7409022049
 31
0.0
  0
SPLINE
  5
49
330
1F
100
AcDbEntity
  8
0
  6
Continuous
 62
     7
370
    15
100
AcDbSpline
210
0.0
220
0.0
230
1.0
 70
     8
 71
     3
 72
   124
 73
   120
 74
     0
 42
0.00000001
 43
0.00000001
 12
1.0
 22
0.0
 32
0.0
 13
1.0
 23
0.0
 33
0.0
 40
0.0
 40
0.0
 40
0.0
 40
0.0
 40
0.001953125
 40
0.0039062499999999
 40
0.0058593749999999
 40
0.0078124999999999
 40
0.0078124999999999
 40
0.0097656249999999
 40
0.0097656249999999
 40
0.0117187499999998
 40
0.0136718749999998
 40
0.0156249999999998
 40
0.0156249999999998
 40
0.0195312499999997
 40
0.0195312499999997
 40
0.0234374999999997
 40
0.0234374999999997
 40
0.0273437499999996
 40
0.0273437499999996
 40
0.0312499999999996
 40
0.0312499999999996
 40
0.0351562499999995
 40
0.0351562499999995
 40
0.0390624999999995
 40
0.0390624999999995
 40
0.0429687499999994
 40
0.0429687499999994
 40
0.0468749999999993
 40
0.0468749999999993
 40
0.0546874999999992
 40
0.0546874999999992
 40
0.0624999999999991
 40
0.0624999999999991
 40
0.070312499999999
 40
0.070312499999999
 40
0.0781249999999989
 40
0.0781249999999989
 40
0.0859374999999988
 40
0.0859374999999988
 40
0.0937499999999987
 40
0.0937499999999987
 40
0.1093749999999985
 40
0.1093749999999985
 40
0.1249999999999983
 40
0.1249999999999983
 40
0.1562499999999983
 40
0.1562499999999983
 40
0.1874999999999984
 40
0.1874999999999984
 40
0.2187499999999984
 40
0.2187499999999984
 40
0.2499999999999985
 40
0.2499999999999985
 40
0.3124999999999987
 40
0.3124999999999987
 40
0.3749999999999988
 40
0.3749999999999988
 40
0.4374999999999991
 40
0.4374999999999991
 40
0.4999999999999992
 40
0.4999999999999992
 40
0.5624999999999994
 40
0.5624999999999994
 40
0.6249999999999997
 40
0.6249999999999997
 40
0.6874999999999999
 40
0.6874999999999999
 40
0.7500000000000001
 40
0.7500000000000001
 40
0.7812500000000003
 40
0.7812500000000003
 40
0.8125000000000004
 40
0.8125000000000004
 40
0.8437500000000004
 40
0.8437500000000004
 40
0.8750000000000004
 40
0.8750000000000004
 40
0.9062500000000004
 40
0.9062500000000004
 40
0.9218750000000006
 40
0.9218750000000006
 40
0.9296875000000006
 40
0.9296875000000006
 40
0.9375000000000006
 40
0.9375000000000006
 40
0.9453125000000006
 40
0.9453125000000006
 40
0.9531250000000006
 40
0.9531250000000006
 40
0.9570312500000004
 40
0.9570312500000004
 40
0.9609375000000004
 40
0.9609375000000004
 40
0.9648437500000003
 40
0.9648437500000003
 40
0.9687500000000003
 40
0.9687500000000003
 40
0.9726562500000002
 40
0.9726562500000002
 40
0.9746093750000002
 40
0.9746093750000002
 40
0.9765625000000002
 40
0.9765625000000002
 40
0.9785156250000002
 40
0.9804687500000001
 40
0.9824218750000001
 40
0.9824218750000001
 40
0.9843750000000001
 40
0.9843750000000001
 40
0.9863281250000001
 40
0.98828125
 40
0.990234375
 40
0.990234375
 40
0.9921875
 40
0.9921875
 40
0.994140625
 40
0.9960937499999999
 40
0.9980468749999999
 40
1.0
 40
1.0
 40
1.0
 40
1.0
 10
34.06200362894578
 20
24.47318566948963
 30
0.0
 10
34.04791144958862
 20
24.47318566948963
 30
0.0
 10
34.0197750920833
 20
24.47318567128123
 30
0.0
 10
33.97439129773617
 20
24.47319031570043
 30
0.0
 10
33.92433609518283
 20
24.47320417976907
 30
0.0
 10
33.88807766233111
 20
24.47322258189998
 30
0.0
 10
33.85109843826503
 20
24.47324705075307
 30
0.0
 10
33.83228383096839
 20
24.4732623185319
 30
0.0
 10
33.79502399340794
 20
24.47330038840554
 30
0.0
 10
33.75813641545569
 20
24.47334599259445
 30
0.0
 10
33.70564767754684
 20
24.47344134700581
 30
0.0
 10
33.67279427796538
 20
24.47352574039005
 30
0.0
 10
33.62462158228123
 20
24.47367006324484
 30
0.0
 10
33.59381895809992
 20
24.47378993165889
 30
0.0
 10
33.53021837326959
 20
24.47408802516805
 30
0.0
 10
33.49740450681796
 20
24.47426625025768
 30
0.0
 10
33.42951357343185
 20
24.4746918040008
 30
0.0
 10
33.39461655704896
 20
24.47493913256786
 30
0.0
 10
33.3257136538743
 20
24.47551333728806
 30
0.0
 10
33.29173675383256
 20
24.47584021342729
 30
0.0
 10
33.22519973114179
 20
24.47658365733166
 30
0.0
 10
33.19257116245193
 20
24.47700022511144
 30
0.0
 10
33.12705692394379
 20
24.47793289624862
 30
0.0
 10
33.09413775715043
 20
24.4784489996132
 30
0.0
 10
33.02750305227527
 20
24.47959028505439
 30
0.0
 10
32.99380769864408
 20
24.48021546710903
 30
0.0
 10
32.92634299391919
 20
24.48158415230998
 30
0.0
 10
32.89260129661988
 20
24.48232765542619
 30
0.0
 10
32.79187961189282
 20
24.48474906133286
 30
0.0
 10
32.72541219192737
 20
24.4866180122255
 30
0.0
 10
32.5923771428678
 20
24.490933217883
 30
0.0
 10
32.52576829039874
 20
24.49337947298802
 30
0.0
 10
32.39210812782453
 20
24.49891236930315
 30
0.0
 10
32.32511470333444
 20
24.50199901216704
 30
0.0
 10
32.19158107511037
 20
24.50887089243945
 30
0.0
 10
32.12504319854695
 20
24.51265613105907
 30
0.0
 10
31.99182883983853
 20
24.52097845703699
 30
0.0
 10
31.92509984892092
 20
24.52551554541843
 30
0.0
 10
31.79169933369103
 20
24.53538982621383
 30
0.0
 10
31.72509626317055
 20
24.54072702024032
 30
0.0
 10
31.52552628255602
 20
24.55800357647284
 30
0.0
 10
31.39244294674361
 20
24.57121046530982
 30
0.0
 10
31.1269034199745
 20
24.60128723391336
 30
0.0
 10
30.99434302508004
 20
24.61815710538481
 30
0.0
 10
30.5974098176717
 20
24.67456629561719
 30
0.0
 10
30.33392786584378
 20
24.71994242013821
 30
0.0
 10
29.81022676559784
 20
24.82692785959029
 30
0.0
 10
29.55003107570783
 20
24.88852894484624
 30
0.0
 10
29.03390657708956
 20
25.0275557517536
 30
0.0
 10
28.77798128538338
 20
25.1049708481999
 30
0.0
 10
28.27102667021491
 20
25.27441357283633
 30
0.0
 10
28.02000024330282
 20
25.3664311587546
 30
0.0
 10
27.2746330171079
 20
25.66186826421592
 30
0.0
 10
26.78814425204647
 20
25.88465439569091
 30
0.0
 10
25.83397809714455
 20
26.36675215036848
 30
0.0
 10
25.36621752873495
 20
26.62598572492725
 30
0.0
 10
24.44411501100424
 20
27.16689217819456
 30
0.0
 10
23.98972758670302
 20
27.44857557063969
 30
0.0
 10
23.08780762268412
 20
28.02250275457474
 30
0.0
 10
22.6402578768805
 20
28.31478412114565
 30
0.0
 10
21.74516670378005
 20
28.89930374214095
 30
0.0
 10
21.29761695886586
 20
29.19158514975146
 30
0.0
 10
20.39569700027271
 20
29.76551226657699
 30
0.0
 10
19.94130955848763
 20
30.04719578754375
 30
0.0
 10
19.01920719626574
 20
30.5881020778397
 30
0.0
 10
18.55144666640537
 20
30.84733595092644
 30
0.0
 10
17.59728000492487
 20
31.32943335780369
 30
0.0
 10
17.11079169350316
 20
31.55221821750849
 30
0.0
 10
16.36542449995449
 20
31.84765727794674
 30
0.0
 10
16.11439697654356
 20
31.93967383460057
 30
0.0
 10
15.60744413335414
 20
32.10911654746528
 30
0.0
 10
15.35151621922656
 20
32.1865325119329
 30
0.0
 10
14.83539207954796
 20
32.32555840925849
 30
0.0
 10
14.57519969679649
 20
32.38716028865483
 30
0.0
 10
14.05148815076426
 20
32.49414534888146
 30
0.0
 10
13.78799869020483
 20
32.53952164917656
 30
0.0
 10
13.25877625203401
 20
32.61473386626074
 30
0.0
 10
12.99312562502418
 20
32.64456660225861
 30
0.0
 10
12.59368397166086
 20
32.67911973492195
 30
0.0
 10
12.46038387663567
 20
32.68894822664854
 30
0.0
 10
12.26039698477491
 20
32.70143173320571
 30
0.0
 10
12.19370552684613
 20
32.70521699057883
 30
0.0
 10
12.06017206605381
 20
32.71208887571187
 30
0.0
 10
11.99334502434333
 20
32.71517550479135
 30
0.0
 10
11.85995601006055
 20
32.72070839175327
 30
0.0
 10
11.79340263530899
 20
32.72315465475027
 30
0.0
 10
11.65968138835573
 20
32.72746986833581
 30
0.0
 10
11.59243724320855
 20
32.72933881505772
 30
0.0
 10
11.49239058039126
 20
32.73176021703147
 30
0.0
 10
11.45919225899044
 20
32.73250371973739
 30
0.0
 10
11.39281939211368
 20
32.73387240610502
 30
0.0
 10
11.35961235347279
 20
32.73449758960811
 30
0.0
 10
11.29254861906037
 20
32.73563887647136
 30
0.0
 10
11.25866820659107
 20
32.73615497971573
 30
0.0
 10
11.19101209173149
 20
32.73708764924113
 30
0.0
 10
11.15733500482349
 20
32.73750421565147
 30
0.0
 10
11.09197835468632
 20
32.73824765929357
 30
0.0
 10
11.06034608549884
 20
32.73857453668444
 30
0.0
 10
11.01041536340919
 20
32.73900519150518
 30
0.0
 10
10.99334133993493
 20
32.73913880187568
 30
0.0
 10
10.9585498983364
 20
32.73938743614656
 30
0.0
 10
10.94086493090482
 20
32.73950246005388
 30
0.0
 10
10.90582406702716
 20
32.73971523655831
 30
0.0
 10
10.87112861174085
 20
32.73991074175602
 30
0.0
 10
10.82154829511729
 20
32.74015618778112
 30
0.0
 10
10.79011357683067
 20
32.74029064983284
 30
0.0
 10
10.7589896400231
 20
32.74041189940181
 30
0.0
 10
10.74357394421231
 20
32.74046591794208
 30
0.0
 10
10.71211265366662
 20
32.74056213327875
 30
0.0
 10
10.67998420106914
 20
32.74064652685993
 30
0.0
 10
10.62825778864593
 20
32.74074188171621
 30
0.0
 10
10.59149946476719
 20
32.74078748620956
 30
0.0
 10
10.55419663896872
 20
32.74082555634664
 30
0.0
 10
10.53527463791558
 20
32.74084082423665
 30
0.0
 10
10.49802300843091
 20
32.74086529322751
 30
0.0
 10
10.46144543394431
 20
32.74088369540839
 30
0.0
 10
10.41106343551178
 20
32.74089755926413
 30
0.0
 10
10.36560152150456
 20
32.74090220330704
 30
0.0
 10
10.33751313108503
 20
32.74090220492116
 30
0.0
 10
10.32342095173447
 20
32.74090220492115
 30
0.0
  0
LINE
  5
4A
330
1F
100
AcDbEntity
  8
0
  6
Continuous
 62
     7
370
    15
100
AcDbLine
 10
35.0620036289
 20
24.4731856695
 30
0.0
 11
34.0620036289
 21
24.4731856695
 31
0.0
  0
LINE
  5
4B
330
1F
100
AcDbEntity
  8
0
  6
Continuous
 62
     7
370
    15
100
AcDbLine
 10
35.0620036289
 20
21.3235793703
 30
0.0
 11
35.0620036289
 21
24.4731856695
 31
0.0
  0
ENDSEC
  0
SECTION
  2
OBJECTS
  0
DICTIONARY
  5
C
330
0
100
AcDbDictionary
281
     1
  3
ACAD_GROUP
350
D
  3
ACAD_LAYOUT
350
1A
  3
ACAD_MLINESTYLE
350
17
  3
ACAD_PLOTSETTINGS
350
19
  3
ACAD_PLOTSTYLENAME
350
E
  0
DICTIONARY
  5
D
102
{ACAD_REACTORS
330
C
102
}
330
C
100
AcDbDictionary
281
     1
  0
DICTIONARY
  5
1A
102
{ACAD_REACTORS
330
C
102
}
330
C
100
AcDbDictionary
281
     1
  3
Layout1
350
1E
  3
Layout2
350
26
  3
Model
350
22
  0
DICTIONARY
  5
17
102
{ACAD_REACTORS
330
C
102
}
330
C
100
AcDbDictionary
281
     1
  3
Standard
350
18
  0
DICTIONARY
  5
19
102
{ACAD_REACTORS
330
C
102
}
330
C
100
AcDbDictionary
281
     1
  0
ACDBDICTIONARYWDFLT
  5
E
102
{ACAD_REACTORS
330
C
102
}
330
C
100
AcDbDictionary
281
     1
  3
Normal
350
F
100
AcDbDictionaryWithDefault
340
F
  0
LAYOUT
  5
1E
102
{ACAD_REACTORS
330
1A
102
}
330
1A
100
AcDbPlotSettings
  1

  2
none_device
  4

  6

 40
0.0
 41
0.0
 42
0.0
 43
0.0
 44
0.0
 45
0.0
 46
0.0
 47
0.0
 48
0.0
 49
0.0
140
0.0
141
0.0
142
1.0
143
1.0
 70
   688
 72
     0
 73
     0
 74
     5
  7

 75
    16
147
1.0
148
0.0
149
0.0
100
AcDbLayout
  1
Layout1
 70
     1
 71
     1
 10
0.0
 20
0.0
 11
12.0
 21
9.0
 12
0.0
 22
0.0
 32
0.0
 14
1.0000000000E+20
 24
1.0000000000E+20
 34
1.0000000000E+20
 15
-1.0000000000E+20
 25
-1.0000000000E+20
 35
-1.0000000000E+20
146
0.0
 13
0.0
 23
0.0
 33
0.0
 16
1.0
 26
0.0
 36
0.0
 17
0.0
 27
1.0
 37
0.0
 76
     0
330
1B
  0
LAYOUT
  5
26
102
{ACAD_REACTORS
330
1A
102
}
330
1A
100
AcDbPlotSettings
  1

  2
none_device
  4

  6

 40
0.0
 41
0.0
 42
0.0
 43
0.0
 44
0.0
 45
0.0
 46
0.0
 47
0.0
 48
0.0
 49
0.0
140
0.0
141
0.0
142
1.0
143
1.0
 70
   688
 72
     0
 73
     0
 74
     5
  7

 75
    16
147
1.0
148
0.0
149
0.0
100
AcDbLayout
  1
Layout2
 70
     1
 71
     2
 10
0.0
 20
0.0
 11
0.0
 21
0.0
 12
0.0
 22
0.0
 32
0.0
 14
0.0
 24
0.0
 34
0.0
 15
0.0
 25
0.0
 35
0.0
146
0.0
 13
0.0
 23
0.0
 33
0.0
 16
1.0
 26
0.0
 36
0.0
 17
0.0
 27
1.0
 37
0.0
 76
     0
330
23
  0
LAYOUT
  5
22
102
{ACAD_REACTORS
330
1A
102
}
330
1A
100
AcDbPlotSettings
  1

  2
none_device
  4

  6

 40
0.0
 41
0.0
 42
0.0
 43
0.0
 44
0.0
 45
0.0
 46
0.0
 47
0.0
 48
0.0
 49
0.0
140
0.0
141
0.0
142
1.0
143
1.0
 70
  1712
 72
     0
 73
     0
 74
     0
  7

 75
     0
147
1.0
148
0.0
149
0.0
100
AcDbLayout
  1
Model
 70
     1
 71
     0
 10
0.0
 20
0.0
 11
55.0
 21
42.5
 12
0.0
 22
0.0
 32
0.0
 14
0.0
 24
0.0
 34
0.0
 15
55.0
 25
42.5
 35
0.0
146
0.0
 13
0.0
 23
0.0
 33
0.0
 16
1.0
 26
0.0
 36
0.0
 17
0.0
 27
1.0
 37
0.0
 76
     0
330
1F
331
29
  0
MLINESTYLE
  5
18
102
{ACAD_REACTORS
330
17
102
}
330
17
100
AcDbMlineStyle
  2
Standard
 70
     0
  3

 62
   256
 51
90.0
 52
90.0
 71
     2
 49
0.5
 62
   256
  6
BYLAYER
 49
-0.5
 62
   256
  6
BYLAYER
  0
ACDBPLACEHOLDER
  5
F
102
{ACAD_REACTORS
330
E
102
}
330
E
  0
ENDSEC
  0
EOF
