  0
SECTION
  2
HEADER
  9
$ACADVER
  1
AC1015
  9
$ACADMAINTVER
 70
     6
  9
$DWGCODEPAGE
  3
ANSI_1252
  9
$INSBASE
 10
0.0
 20
0.0
 30
0.0
  9
$EXTMIN
 10
0.0
 20
0.0
 30
0.0
  9
$EXTMAX
 10
55.0
 20
42.5
 30
0.0
  9
$LIMMIN
 10
0.0
 20
0.0
  9
$LIMMAX
 10
55.0
 20
42.5
  9
$ORTHOMODE
 70
     0
  9
$REGENMODE
 70
     1
  9
$FILLMODE
 70
     1
  9
$QTEXTMODE
 70
     0
  9
$MIRRTEXT
 70
     1
  9
$LTSCALE
 40
5.0
  9
$ATTMODE
 70
     1
  9
$TEXTSIZE
 40
0.625
  9
$TRACEWID
 40
0.05
  9
$TEXTSTYLE
  7
Standard
  9
$CLAYER
  8
0
  9
$CELTYPE
  6
ByLayer
  9
$CECOLOR
 62
   256
  9
$CELTSCALE
 40
1.0
  9
$DISPSILH
 70
     0
  9
$DIMSCALE
 40
1.0
  9
$DIMASZ
 40
0.65
  9
$DIMEXO
 40
0.25
  9
$DIMDLI
 40
0.38
  9
$DIMRND
 40
0.0
  9
$DIMDLE
 40
0.0
  9
$DIMEXE
 40
0.625
  9
$DIMTP
 40
0.0
  9
$DIMTM
 40
0.0
  9
$DIMTXT
 40
0.625
  9
$DIMCEN
 40
0.09
  9
$DIMTSZ
 40
0.0
  9
$DIMTOL
 70
     0
  9
$DIMLIM
 70
     0
  9
$DIMTIH
 70
     1
  9
$DIMTOH
 70
     1
  9
$DIMSE1
 70
     0
  9
$DIMSE2
 70
     0
  9
$DIMTAD
 70
     0
  9
$DIMZIN
 70
     0
  9
$DIMBLK
  1

  9
$DIMASO
 70
     1
  9
$DIMSHO
 70
     1
  9
$DIMPOST
  1

  9
$DIMAPOST
  1

  9
$DIMALT
 70
     0
  9
$DIMALTD
 70
     2
  9
$DIMALTF
 40
25.4
  9
$DIMLFAC
 40
1.0
  9
$DIMTOFL
 70
     0
  9
$DIMTVP
 40
0.0
  9
$DIMTIX
 70
     0
  9
$DIMSOXD
 70
     0
  9
$DIMSAH
 70
     0
  9
$DIMBLK1
  1

  9
$DIMBLK2
  1

  9
$DIMSTYLE
  2
Standard
  9
$DIMCLRD
 70
     0
  9
$DIMCLRE
 70
     0
  9
$DIMCLRT
 70
     0
  9
$DIMTFAC
 40
1.0
  9
$DIMGAP
 40
0.3
  9
$DIMJUST
 70
     0
  9
$DIMSD1
 70
     0
  9
$DIMSD2
 70
     0
  9
$DIMTOLJ
 70
     1
  9
$DIMTZIN
 70
     0
  9
$DIMALTZ
 70
     0
  9
$DIMALTTZ
 70
     0
  9
$DIMUPT
 70
     0
  9
$DIMDEC
 70
     3
  9
$DIMTDEC
 70
     3
  9
$DIMALTU
 70
     2
  9
$DIMALTTD
 70
     2
  9
$DIMTXSTY
  7
Standard
  9
$DIMAUNIT
 70
     0
  9
$DIMADEC
 70
     2
  9
$DIMALTRND
 40
0.0
  9
$DIMAZIN
 70
     0
  9
$DIMDSEP
 70
    46
  9
$DIMATFIT
 70
     3
  9
$DIMFRAC
 70
     0
  9
$DIMLDRBLK
  1

  9
$DIMLUNIT
 70
     2
  9
$DIMLWD
 70
    -2
  9
$DIMLWE
 70
    -2
  9
$DIMTMOVE
 70
     0
  9
$LUNITS
 70
     2
  9
$LUPREC
 70
     2
  9
$SKETCHINC
 40
0.1
  9
$FILLETRAD
 40
0.5
  9
$AUNITS
 70
     0
  9
$AUPREC
 70
     2
  9
$MENU
  1
.
  9
$ELEVATION
 40
0.0
  9
$PELEVATION
 40
0.0
  9
$THICKNESS
 40
0.0
  9
$LIMCHECK
 70
     0
  9
$CHAMFERA
 40
0.5
  9
$CHAMFERB
 40
0.5
  9
$CHAMFERC
 40
1.0
  9
$CHAMFERD
 40
0.0
  9
$SKPOLY
 70
     0
  9
$TDCREATE
 40
2456993.61772816
  9
$TDUCREATE
 40
2456993.826061493
  9
$TDUPDATE
 40
2456993.617728345
  9
$TDUUPDATE
 40
2456993.826061678
  9
$TDINDWG
 40
0.0000000116
  9
$TDUSRTIMER
 40
0.0000000116
  9
$USRTIMER
 70
     1
  9
$ANGBASE
 50
0.0
  9
$ANGDIR
 70
     0
  9
$PDMODE
 70
     0
  9
$PDSIZE
 40
-1.0
  9
$PLINEWID
 40
0.0
  9
$SPLFRAME
 70
     0
  9
$SPLINETYPE
 70
     6
  9
$SPLINESEGS
 70
     8
  9
$HANDSEED
  5
4C
  9
$SURFTAB1
 70
     6
  9
$SURFTAB2
 70
     6
  9
$SURFTYPE
 70
     6
  9
$SURFU
 70
     6
  9
$SURFV
 70
     6
  9
$UCSBASE
  2

  9
$UCSNAME
  2

  9
$UCSORG
 10
0.0
 20
0.0
 30
0.0
  9
$UCSXDIR
 10
1.0
 20
0.0
 30
0.0
  9
$UCSYDIR
 10
0.0
 20
1.0
 30
0.0
  9
$UCSORTHOREF
  2

  9
$UCSORTHOVIEW
 70
     0
  9
$UCSORGTOP
 10
0.0
 20
0.0
 30
0.0
  9
$UCSORGBOTTOM
 10
0.0
 20
0.0
 30
0.0
  9
$UCSORGLEFT
 10
0.0
 20
0.0
 30
0.0
  9
$UCSORGRIGHT
 10
0.0
 20
0.0
 30
0.0
  9
$UCSORGFRONT
 10
0.0
 20
0.0
 30
0.0
  9
$UCSORGBACK
 10
0.0
 20
0.0
 30
0.0
  9
$PUCSBASE
  2

  9
$PUCSNAME
  2

  9
$PUCSORG
 10
0.0
 20
0.0
 30
0.0
  9
$PUCSXDIR
 10
1.0
 20
0.0
 30
0.0
  9
$PUCSYDIR
 10
0.0
 20
1.0
 30
0.0
  9
$PUCSORTHOREF
  2

  9
$PUCSORTHOVIEW
 70
     0
  9
$PUCSORGTOP
 10
0.0
 20
0.0
 30
0.0
  9
$PUCSORGBOTTOM
 10
0.0
 20
0.0
 30
0.0
  9
$PUCSORGLEFT
 10
0.0
 20
0.0
 30
0.0
  9
$PUCSORGRIGHT
 10
0.0
 20
0.0
 30
0.0
  9
$PUCSORGFRONT
 10
0.0
 20
0.0
 30
0.0
  9
$PUCSORGBACK
 10
0.0
 20
0.0
 30
0.0
  9
$USERI1
 70
     0
  9
$USERI2
 70
     0
  9
$USERI3
 70
     0
  9
$USERI4
 70
     0
  9
$USERI5
 70
     0
  9
$USERR1
 40
0.0
  9
$USERR2
 40
0.0
  9
$USERR3
 40
0.0
  9
$USERR4
 40
0.0
  9
$USERR5
 40
0.0
  9
$WORLDVIEW
 70
     1
  9
$SHADEDGE
 70
     3
  9
$SHADEDIF
 70
    70
  9
$TILEMODE
 70
     1
  9
$MAXACTVP
 70
    64
  9
$PINSBASE
 10
0.0
 20
0.0
 30
0.0
  9
$PLIMCHECK
 70
     0
  9
$PEXTMIN
 10
1.0000000000E+20
 20
1.0000000000E+20
 30
1.0000000000E+20
  9
$PEXTMAX
 10
-1.0000000000E+20
 20
-1.0000000000E+20
 30
-1.0000000000E+20
  9
$PLIMMIN
 10
0.0
 20
0.0
  9
$PLIMMAX
 10
12.0
 20
9.0
  9
$UNITMODE
 70
     0
  9
$VISRETAIN
 70
     1
  9
$PLINEGEN
 70
     0
  9
$PSLTSCALE
 70
     1
  9
$TREEDEPTH
 70
  3020
  9
$CMLSTYLE
  2
Standard
  9
$CMLJUST
 70
     0
  9
$CMLSCALE
 40
1.0
  9
$PROXYGRAPHICS
 70
     1
  9
$MEASUREMENT
 70
     0
  9
$CELWEIGHT
370
    -1
  9
$ENDCAPS
280
     0
  9
$JOINSTYLE
280
     0
  9
$LWDISPLAY
290
     1
  9
$INSUNITS
 70
     1
  9
$HYPERLINKBASE
  1

  9
$STYLESHEET
  1

  9
$XEDIT
290
     1
  9
$CEPSNTYPE
380
     0
  9
$PSTYLEMODE
290
     1
  9
$FINGERPRINTGUID
  2
{12813893-08A8-4889-9E5A-174D1F5159BB}
  9
$VERSIONGUID
  2
{FAEB1C32-E019-11D5-929B-00C0DF256EC4}
  9
$EXTNAMES
290
     1
  9
$PSVPSCALE
 40
0.0
  9
$OLESTARTUP
290
     0
  0
ENDSEC
  0
SECTION
  2
CLASSES
  0
CLASS
  1
ACDBDICTIONARYWDFLT
  2
AcDbDictionaryWithDefault
  3
ObjectDBX Classes
 90
        0
280
     0
281
     0
  0
CLASS
  1
VISUALSTYLE
  2
AcDbVisualStyle
  3
ObjectDBX Classes
 90
     4095
280
     0
281
     0
  0
CLASS
  1
MATERIAL
  2
AcDbMaterial
  3
ObjectDBX Classes
 90
     1153
280
     0
281
     0
  0
CLASS
  1
ACDBPLACEHOLDER
  2
AcDbPlaceHolder
  3
ObjectDBX Classes
 90
        0
280
     0
281
     0
  0
CLASS
  1
LAYOUT
  2
AcDbLayout
  3
ObjectDBX Classes
 90
        0
280
     0
281
     0
  0
ENDSEC
  0
SECTION
  2
TABLES
  0
TABLE
  2
VPORT
  5
8
330
0
100
AcDbSymbolTable
 70
     1
  0
VPORT
  5
29
330
8
100
AcDbSymbolTableRecord
100
AcDbViewportTableRecord
  2
*Active
 70
     0
 10
0.0
 20
0.0
 11
1.0
 21
1.0
 12
27.5
 22
21.25
 13
0.0
 23
0.0
 14
0.5
 24
0.5
 15
0.5
 25
0.5
 16
0.0
 26
0.0
 36
1.0
 17
0.0
 27
0.0
 37
0.0
 40
42.5
 41
1.2941176471
 42
50.0
 43
0.0
 44
0.0
 50
0.0
 51
0.0
 71
     0
 72
  2000
 73
     1
 74
     3
 75
     0
 76
     0
 77
     0
 78
     0
281
     0
 65
     1
110
0.0
120
0.0
130
0.0
111
1.0
121
0.0
131
0.0
112
0.0
122
1.0
132
0.0
 79
     0
146
0.0
  0
ENDTAB
  0
TABLE
  2
LTYPE
  5
5
330
0
100
AcDbSymbolTable
 70
     6
  0
LTYPE
  5
14
330
5
100
AcDbSymbolTableRecord
100
AcDbLinetypeTableRecord
  2
ByBlock
 70
     0
  3

 72
    65
 73
     0
 40
0.0
  0
LTYPE
  5
15
330
5
100
AcDbSymbolTableRecord
100
AcDbLinetypeTableRecord
  2
ByLayer
 70
     0
  3

 72
    65
 73
     0
 40
0.0
  0
LTYPE
  5
16
330
5
100
AcDbSymbolTableRecord
100
AcDbLinetypeTableRecord
  2
Continuous
 70
     0
  3
Solid line
 72
    65
 73
     0
 40
0.0
  0
LTYPE
  5
3F
330
5
100
AcDbSymbolTableRecord
100
AcDbLinetypeTableRecord
  2
HIDDEN
 70
     0
  3
Hidden __ __ __ __ __ __ __ __ __ __ __ __ __ __
 72
    65
 73
     2
 40
0.075
 49
0.05
 74
     0
 49
-0.025
 74
     0
  0
LTYPE
  5
40
330
5
100
AcDbSymbolTableRecord
100
AcDbLinetypeTableRecord
  2
PHANTOM
 70
     0
  3
Phantom ______  __  __  ______  __  __  ______
 72
    65
 73
     6
 40
0.5
 49
0.25
 74
     0
 49
-0.05
 74
     0
 49
0.05
 74
     0
 49
-0.05
 74
     0
 49
0.05
 74
     0
 49
-0.05
 74
     0
  0
LTYPE
  5
41
330
5
100
AcDbSymbolTableRecord
100
AcDbLinetypeTableRecord
  2
CENTER
 70
     0
  3
Center ____ _ ____ _ ____ _ ____ _ ____ _ ____
 72
    65
 73
     4
 40
0.4
 49
0.25
 74
     0
 49
-0.05
 74
     0
 49
0.05
 74
     0
 49
-0.05
 74
     0
  0
LTYPE
  5
42
330
5
100
AcDbSymbolTableRecord
100
AcDbLinetypeTableRecord
  2
CENTERX2
 70
     0
  3
Center (2x) ________  __  ________  __  _____
 72
    65
 73
     4
 40
0.8
 49
0.5
 74
     0
 49
-0.1
 74
     0
 49
0.1
 74
     0
 49
-0.1
 74
     0
  0
LTYPE
  5
43
330
5
100
AcDbSymbolTableRecord
100
AcDbLinetypeTableRecord
  2
DOT2
 70
     0
  3
Dot (.5x) ........................................
 72
    65
 73
     2
 40
0.025
 49
0.0
 74
     0
 49
-0.025
 74
     0
  0
ENDTAB
  0
TABLE
  2
LAYER
  5
2
330
0
100
AcDbSymbolTable
 70
     1
  0
LAYER
  5
10
330
2
100
AcDbSymbolTableRecord
100
AcDbLayerTableRecord
  2
0
 70
     0
 62
     7
  6
Continuous
370
    -3
390
F
  0
ENDTAB
  0
TABLE
  2
STYLE
  5
3
330
0
100
AcDbSymbolTable
 70
     1
  0
STYLE
  5
11
330
3
100
AcDbSymbolTableRecord
100
AcDbTextStyleTableRecord
  2
Standard
 70
     0
 40
0.0
 41
1.0
 50
0.0
 71
     0
 42
0.625
  3
txt
  4

  0
ENDTAB
  0
TABLE
  2
VIEW
  5
6
330
0
100
AcDbSymbolTable
 70
     0
  0
ENDTAB
  0
TABLE
  2
UCS
  5
7
330
0
100
AcDbSymbolTable
 70
     0
  0
ENDTAB
  0
TABLE
  2
APPID
  5
9
330
0
100
AcDbSymbolTable
 70
     1
  0
APPID
  5
12
330
9
100
AcDbSymbolTableRecord
100
AcDbRegAppTableRecord
  2
ACAD
 70
     0
  0
ENDTAB
  0
TABLE
  2
DIMSTYLE
  5
A
330
0
100
AcDbSymbolTable
 70
     1
100
AcDbDimStyleTable
  0
DIMSTYLE
105
27
330
A
100
AcDbSymbolTableRecord
100
AcDbDimStyleTableRecord
  2
Standard
 70
     0
178
     0
340
11
  0
ENDTAB
  0
TABLE
  2
BLOCK_RECORD
  5
1
330
0
100
AcDbSymbolTable
 70
     1
  0
BLOCK_RECORD
  5
1F
330
1
100
AcDbSymbolTableRecord
100
AcDbBlockTableRecord
  2
*Model_Space
340
22
  0
BLOCK_RECORD
  5
1B
330
1
100
AcDbSymbolTableRecord
100
AcDbBlockTableRecord
  2
*Paper_Space
340
1E
  0
BLOCK_RECORD
  5
23
330
1
100
AcDbSymbolTableRecord
100
AcDbBlockTableRecord
  2
*Paper_Space0
340
26
  0
ENDTAB
  0
ENDSEC
  0
SECTION
  2
BLOCKS
  0
BLOCK
  5
20
330
1F
100
AcDbEntity
  8
0
100
AcDbBlockBegin
  2
*Model_Space
 70
     0
 10
0.0
 20
0.0
 30
0.0
  3
*Model_Space
  1

  0
ENDBLK
  5
21
330
1F
100
AcDbEntity
  8
0
100
AcDbBlockEnd
  0
BLOCK
  5
1C
330
1B
100
AcDbEntity
 67
     1
  8
0
100
AcDbBlockBegin
  2
*Paper_Space
 70
     0
 10
0.0
 20
0.0
 30
0.0
  3
*Paper_Space
  1

  0
ENDBLK
  5
1D
330
1B
100
AcDbEntity
 67
     1
  8
0
100
AcDbBlockEnd
  0
BLOCK
  5
24
330
23
100
AcDbEntity
  8
0
100
AcDbBlockBegin
  2
*Paper_Space0
 70
     0
 10
0.0
 20
0.0
 30
0.0
  3
*Paper_Space0
  1

  0
ENDBLK
  5
25
330
23
100
AcDbEntity
  8
0
100
AcDbBlockEnd
  0
ENDSEC
  0
SECTION
  2
ENTITIES
  0
LINE
  5
44
330
1F
100
AcDbEntity
  8
0
  6
Continuous
 62
     7
370
    15
100
AcDbLine
 10
39.4116246749
 20
13.1545597344
 30
0.0
 11
40.4116246749
 21
13.1545597344
 31
0.0
  0
SPLINE
  5
45
330
1F
100
AcDbEntity
  8
0
  6
Continuous
 62
     7
370
    15
100
AcDbSpline
210
0.0
220
0.0
230
1.0
 70
     8
 71
     3
 72
   112
 73
   108
 74
     0
 42
0.00000001
 43
0.00000001
 12
1.0
 22
0.0
 32
0.0
 13
1.0
 23
0.0
 33
0.0
 40
0.0
 40
0.0
 40
0.0
 40
0.0
 40
0.00390625
 40
0.0078125
 40
0.01171875
 40
0.0156250000000001
 40
0.0156250000000001
 40
0.0195312500000001
 40
0.0195312500000001
 40
0.0234375000000001
 40
0.0273437500000001
 40
0.0273437500000001
 40
0.0312500000000001
 40
0.0312500000000001
 40
0.0351562500000001
 40
0.0351562500000001
 40
0.0390625000000001
 40
0.0390625000000001
 40
0.0429687500000001
 40
0.0429687500000001
 40
0.0468750000000001
 40
0.0468750000000001
 40
0.0507812500000001
 40
0.0546875000000001
 40
0.0546875000000001
 40
0.0585937500000001
 40
0.0585937500000001
 40
0.0625000000000002
 40
0.0625000000000002
 40
0.0703125000000002
 40
0.0703125000000002
 40
0.0781250000000002
 40
0.0781250000000002
 40
0.0859375000000002
 40
0.0859375000000002
 40
0.0937500000000002
 40
0.0937500000000002
 40
0.1093750000000002
 40
0.1093750000000002
 40
0.1250000000000002
 40
0.1250000000000002
 40
0.1562500000000002
 40
0.1562500000000002
 40
0.1875000000000002
 40
0.1875000000000002
 40
0.2500000000000002
 40
0.2500000000000002
 40
0.3125000000000002
 40
0.3125000000000002
 40
0.3750000000000002
 40
0.3750000000000002
 40
0.4375
 40
0.4375
 40
0.4999999999999998
 40
0.4999999999999998
 40
0.5624999999999997
 40
0.5624999999999997
 40
0.6249999999999996
 40
0.6249999999999996
 40
0.6874999999999994
 40
0.6874999999999994
 40
0.7499999999999993
 40
0.7499999999999993
 40
0.8124999999999992
 40
0.8124999999999992
 40
0.8437499999999994
 40
0.8437499999999994
 40
0.8749999999999997
 40
0.8749999999999997
 40
0.8906249999999997
 40
0.8906249999999997
 40
0.9062499999999998
 40
0.9062499999999998
 40
0.9140624999999998
 40
0.9140624999999998
 40
0.9218749999999998
 40
0.9218749999999998
 40
0.9296874999999999
 40
0.9296874999999999
 40
0.9374999999999999
 40
0.9374999999999999
 40
0.9414062499999999
 40
0.9414062499999999
 40
0.9453124999999999
 40
0.9453124999999999
 40
0.9492187499999999
 40
0.9531249999999999
 40
0.9531249999999999
 40
0.95703125
 40
0.95703125
 40
0.9609375
 40
0.9609375
 40
0.96484375
 40
0.96484375
 40
0.96875
 40
0.96875
 40
0.97265625
 40
0.97265625
 40
0.9765625
 40
0.98046875
 40
0.98046875
 40
0.984375
 40
0.984375
 40
0.9882812500000001
 40
0.9921875000000001
 40
0.9960937500000001
 40
1.0
 40
1.0
 40
1.0
 40
1.0
 10
14.03170341505823
 20
11.18605579736699
 30
0.0
 10
14.05937958659299
 20
11.18605579736699
 30
0.0
 10
14.11445334631503
 20
11.18605580188872
 30
0.0
 10
14.20528091010478
 20
11.18606286858779
 30
0.0
 10
14.30800492226917
 20
11.18608387662875
 30
0.0
 10
14.38328947868641
 20
11.18611165388374
 30
0.0
 10
14.45961938392603
 20
11.18614850094383
 30
0.0
 10
14.49829788905862
 20
11.18617145937333
 30
0.0
 10
14.57259366354009
 20
11.18622857493369
 30
0.0
 10
14.64341317879395
 20
11.18629688905479
 30
0.0
 10
14.70445277134612
 20
11.18639175117744
 30
0.0
 10
14.76369670339541
 20
11.18650190989964
 30
0.0
 10
14.79274680431237
 20
11.18656463754269
 30
0.0
 10
14.8542839578273
 20
11.18670735931535
 30
0.0
 10
14.88677781116433
 20
11.18678735344459
 30
0.0
 10
14.95524653974003
 20
11.18696652576533
 30
0.0
 10
14.99114731551723
 20
11.18706570395448
 30
0.0
 10
15.06223582062155
 20
11.18728510963936
 30
0.0
 10
15.0972865752574
 20
11.18740533713073
 30
0.0
 10
15.16469186052577
 20
11.18766865453644
 30
0.0
 10
15.19704647425302
 20
11.18781174445071
 30
0.0
 10
15.2607089849018
 20
11.18812254773605
 30
0.0
 10
15.32377598140339
 20
11.1884579741833
 30
0.0
 10
15.38969277114634
 20
11.18884606874479
 30
0.0
 10
15.45693550667371
 20
11.18926215974743
 30
0.0
 10
15.49114039896343
 20
11.18948420356458
 30
0.0
 10
15.55912885948845
 20
11.18995790094814
 30
0.0
 10
15.59289544020387
 20
11.19020955453493
 30
0.0
 10
15.69278756062331
 20
11.19101127109103
 30
0.0
 10
15.75754684000144
 20
11.19160811307645
 30
0.0
 10
15.88908034947051
 20
11.1929384050594
 30
0.0
 10
15.95590331736219
 20
11.19367185545548
 30
0.0
 10
16.08951961137192
 20
11.19528652743265
 30
0.0
 10
16.15607904852339
 20
11.196167751173
 30
0.0
 10
16.28862347483292
 20
11.19808831969684
 30
0.0
 10
16.35478740479594
 20
11.19912765906224
 30
0.0
 10
16.55368077647331
 20
11.20249725893624
 30
0.0
 10
16.68658641219201
 20
11.20507947886429
 30
0.0
 10
16.95216241769638
 20
11.21098384702846
 30
0.0
 10
17.08486712351481
 20
11.21430596638959
 30
0.0
 10
17.48289810048553
 20
11.22546719626789
 30
0.0
 10
17.74820753208026
 20
11.23450650043556
 30
0.0
 10
18.27882967940927
 20
11.25610722457584
 30
0.0
 10
18.54407131681033
 20
11.26866801108487
 30
0.0
 10
19.33938259096519
 20
11.3118790434074
 30
0.0
 10
19.86921506354438
 20
11.34812014080936
 30
0.0
 10
20.92767847433284
 20
11.43510066274705
 30
0.0
 10
21.45628728820169
 20
11.48582191756427
 30
0.0
 10
22.51221453968515
 20
11.59956145463369
 30
0.0
 10
23.03949300842056
 20
11.66256250164486
 30
0.0
 10
24.0929240445848
 20
11.79740116358459
 30
0.0
 10
24.61906935140079
 20
11.86922437933555
 30
0.0
 10
25.67069134429817
 20
12.01747359799461
 30
0.0
 10
26.19618135460836
 20
12.09388786991527
 30
0.0
 10
27.24714717446247
 20
12.24672767151286
 30
0.0
 10
27.77263555017634
 20
12.32314190730252
 30
0.0
 10
28.82425965519281
 20
12.47139117354693
 30
0.0
 10
29.35040356896887
 20
12.54321435068173
 30
0.0
 10
30.40383298918427
 20
12.67805298795001
 30
0.0
 10
30.93111782121047
 20
12.74105416053324
 30
0.0
 10
31.98703895624178
 20
12.85479350679315
 30
0.0
 10
32.51566286014701
 20
12.90551495605909
 30
0.0
 10
33.57412549490176
 20
12.99249529040546
 30
0.0
 10
34.10394013673198
 20
13.02873653901562
 30
0.0
 10
34.89930357723684
 20
13.07194751227226
 30
0.0
 10
35.16448757471488
 20
13.08450828443016
 30
0.0
 10
35.6950398455917
 20
13.10610903188832
 30
0.0
 10
35.96053213626923
 20
13.11514835481086
 30
0.0
 10
36.35852124897301
 20
13.12630956696244
 30
0.0
 10
36.49112900184763
 20
13.12963167489028
 30
0.0
 10
36.75665105918836
 20
13.13553604165697
 30
0.0
 10
36.88964003905021
 20
13.13811827561488
 30
0.0
 10
37.08860284296581
 20
13.14148788210062
 30
0.0
 10
37.15476524353154
 20
13.14252721894047
 30
0.0
 10
37.287257432272
 20
13.14444777803362
 30
0.0
 10
37.35377285280322
 20
13.145328997369
 30
0.0
 10
37.48735231632685
 20
13.14694367230363
 30
0.0
 10
37.55418826071203
 20
13.14767712875013
 30
0.0
 10
37.68581959535153
 20
13.14900742358178
 30
0.0
 10
37.7506582663345
 20
13.14960426203631
 30
0.0
 10
37.85050740842021
 20
13.1504059753899
 30
0.0
 10
37.88423303011875
 20
13.15065762840844
 30
0.0
 10
37.9521195964272
 20
13.15113132601857
 30
0.0
 10
37.98626453201751
 20
13.15135337061565
 30
0.0
 10
38.05346170075268
 20
13.15176946318835
 30
0.0
 10
38.11941642294073
 20
13.15215755919103
 30
0.0
 10
38.1826923212835
 20
13.15249298534179
 30
0.0
 10
38.24652453838907
 20
13.15280378785635
 30
0.0
 10
38.2789308088574
 20
13.15294687722168
 30
0.0
 10
38.34627178720955
 20
13.15321019391905
 30
0.0
 10
38.3812065731793
 20
13.15333042125104
 30
0.0
 10
38.45199781623615
 20
13.15354982707086
 30
0.0
 10
38.48772538744635
 20
13.15364900553743
 30
0.0
 10
38.55604405097738
 20
13.15382817837056
 30
0.0
 10
38.58856541965815
 20
13.15390817272562
 30
0.0
 10
38.65037266832574
 20
13.15405089469218
 30
0.0
 10
38.67966496435976
 20
13.15411362230365
 30
0.0
 10
38.73935393758844
 20
13.15422378083555
 30
0.0
 10
38.8007623450577
 20
13.15431864267333
 30
0.0
 10
38.87144664287142
 20
13.15438695663192
 30
0.0
 10
38.9454281696545
 20
13.15444407212182
 30
0.0
 10
38.98387215041669
 20
13.1544670305574
 30
0.0
 10
39.05979293517309
 20
13.15450387766005
 30
0.0
 10
39.13472936444401
 20
13.15453165498762
 30
0.0
 10
39.23741166940195
 20
13.15455266312441
 30
0.0
 10
39.32861861766654
 20
13.1545597298604
 30
0.0
 10
39.38394850338189
 20
13.15455973437509
 30
0.0
 10
39.41162467491576
 20
13.15455973437509
 30
0.0
  0
LINE
  5
46
330
1F
100
AcDbEntity
  8
0
  6
Continuous
 62
     7
370
    15
100
AcDbLine
 10
13.0317034151
 20
11.1860557974
 30
0.0
 11
14.0317034151
 21
11.1860557974
 31
0.0
  0
LINE
  5
47
330
1F
100
AcDbEntity
  8
0
  6
Continuous
 62
     7
370
    15
100
AcDbLine
 10
13.0317034151
 20
30.8710951674
 30
0.0
 11
13.0317034151
 21
11.1860557974
 31
0.0
  0
LINE
  5
48
330
1F
100
AcDbEntity
  8
0
  6
Continuous
 62
     7
370
    15
100
AcDbLine
 10
14.0317034151
 20
30.8710951674
 30
0.0
 11
13.0317034151
 21
30.8710951674
 31
0.0
  0
SPLINE
  5
49
330
1F
100
AcDbEntity
  8
0
  6
Continuous
 62
     7
370
    15
100
AcDbSpline
210
0.0
220
0.0
230
1.0
 70
     8
 71
     3
 72
   112
 73
   108
 74
     0
 42
0.00000001
 43
0.00000001
 12
1.0
 22
0.0
 32
0.0
 13
1.0
 23
0.0
 33
0.0
 40
0.0
 40
0.0
 40
0.0
 40
0.0
 40
0.00390625
 40
0.0078125
 40
0.01171875
 40
0.015625
 40
0.015625
 40
0.01953125
 40
0.01953125
 40
0.0234375
 40
0.02734375
 40
0.02734375
 40
0.03125
 40
0.03125
 40
0.03515625
 40
0.03515625
 40
0.0390625
 40
0.0390625
 40
0.04296875
 40
0.04296875
 40
0.046875
 40
0.046875
 40
0.05078125
 40
0.0546875
 40
0.0546875
 40
0.05859375
 40
0.05859375
 40
0.0625
 40
0.0625
 40
0.0703125
 40
0.0703125
 40
0.078125
 40
0.078125
 40
0.0859375
 40
0.0859375
 40
0.09375
 40
0.09375
 40
0.109375
 40
0.109375
 40
0.125
 40
0.125
 40
0.15625
 40
0.15625
 40
0.1875
 40
0.1875
 40
0.25
 40
0.25
 40
0.3125
 40
0.3125
 40
0.375
 40
0.375
 40
0.4375
 40
0.4375
 40
0.5
 40
0.5
 40
0.5625
 40
0.5625
 40
0.625
 40
0.625
 40
0.6875
 40
0.6875
 40
0.75
 40
0.75
 40
0.8125
 40
0.8125
 40
0.84375
 40
0.84375
 40
0.875
 40
0.875
 40
0.890625
 40
0.890625
 40
0.90625
 40
0.90625
 40
0.9140625
 40
0.9140625
 40
0.921875
 40
0.921875
 40
0.9296875
 40
0.9296875
 40
0.9375
 40
0.9375
 40
0.94140625
 40
0.94140625
 40
0.9453125
 40
0.9453125
 40
0.94921875
 40
0.953125
 40
0.953125
 40
0.95703125
 40
0.95703125
 40
0.9609375
 40
0.9609375
 40
0.96484375
 40
0.96484375
 40
0.96875
 40
0.96875
 40
0.97265625
 40
0.97265625
 40
0.9765625
 40
0.98046875
 40
0.98046875
 40
0.984375
 40
0.984375
 40
0.98828125
 40
0.9921875
 40
0.99609375
 40
1.0
 40
1.0
 40
1.0
 40
1.0
 10
39.41162467491576
 20
28.90259123042222
 30
0.0
 10
39.38394850338187
 20
28.90259123042224
 30
0.0
 10
39.32861861766649
 20
28.90259123493696
 30
0.0
 10
39.23741166940191
 20
28.902598301673
 30
0.0
 10
39.13472936444393
 20
28.90261930980985
 30
0.0
 10
39.05979293517301
 20
28.90264708713747
 30
0.0
 10
38.98387215041658
 20
28.90268393424017
 30
0.0
 10
38.94542816965436
 20
28.90270689267576
 30
0.0
 10
38.87144664287125
 20
28.90276400816572
 30
0.0
 10
38.80076234505751
 20
28.90283232212435
 30
0.0
 10
38.73935393758823
 20
28.90292718396216
 30
0.0
 10
38.67966496435955
 20
28.90303734249411
 30
0.0
 10
38.65037266832551
 20
28.90310007010559
 30
0.0
 10
38.58856541965792
 20
28.90324279207219
 30
0.0
 10
38.55604405097713
 20
28.90332278642727
 30
0.0
 10
38.48772538744608
 20
28.90350195926044
 30
0.0
 10
38.45199781623589
 20
28.90360113772703
 30
0.0
 10
38.38120657317906
 20
28.9038205435469
 30
0.0
 10
38.34627178720929
 20
28.90394077087891
 30
0.0
 10
38.27893080885714
 20
28.90420408757631
 30
0.0
 10
38.2465245383888
 20
28.90434717694167
 30
0.0
 10
38.18269232128323
 20
28.90465797945626
 30
0.0
 10
38.11941642294049
 20
28.90499340560706
 30
0.0
 10
38.05346170075243
 20
28.90538150160978
 30
0.0
 10
37.98626453201724
 20
28.90579759418252
 30
0.0
 10
37.95211959642695
 20
28.90601963877963
 30
0.0
 10
37.88423303011849
 20
28.9064933363898
 30
0.0
 10
37.85050740841995
 20
28.90674498940836
 30
0.0
 10
37.75065826633425
 20
28.90754670276201
 30
0.0
 10
37.68581959535129
 20
28.90814354121657
 30
0.0
 10
37.55418826071178
 20
28.9094738360483
 30
0.0
 10
37.4873523163266
 20
28.91020729249485
 30
0.0
 10
37.35377285280298
 20
28.91182196742956
 30
0.0
 10
37.28725743227176
 20
28.91270318676497
 30
0.0
 10
37.15476524353129
 20
28.91462374585821
 30
0.0
 10
37.08860284296556
 20
28.9156630826981
 30
0.0
 10
36.88964003904996
 20
28.91903268918396
 30
0.0
 10
36.7566510591881
 20
28.92161492314195
 30
0.0
 10
36.4911290018474
 20
28.9275192899088
 30
0.0
 10
36.35852124897277
 20
28.93084139783672
 30
0.0
 10
35.96053213626902
 20
28.94200260998855
 30
0.0
 10
35.69503984559147
 20
28.95104193291125
 30
0.0
 10
35.16448757471468
 20
28.97264268036973
 30
0.0
 10
34.89930357723662
 20
28.98520345252779
 30
0.0
 10
34.10394013673181
 20
29.02841442578491
 30
0.0
 10
33.57412549490161
 20
29.06465567439539
 30
0.0
 10
32.51566286014691
 20
29.15163600874241
 30
0.0
 10
31.98703895624172
 20
29.20235745800866
 30
0.0
 10
30.93111782121046
 20
29.31609680426921
 30
0.0
 10
30.40383298918431
 20
29.37909797685277
 30
0.0
 10
29.35040356896897
 20
29.51393661412168
 30
0.0
 10
28.82425965519298
 20
29.58575979125681
 30
0.0
 10
27.7726355501766
 20
29.73400905750185
 30
0.0
 10
27.24714717446276
 20
29.81042329329182
 30
0.0
 10
26.19618135460875
 20
29.96326309489007
 30
0.0
 10
25.6706913442986
 20
30.03967736681105
 30
0.0
 10
24.61906935140132
 20
30.18792658547073
 30
0.0
 10
24.09292404458538
 20
30.25974980122201
 30
0.0
 10
23.03949300842122
 20
30.39458846316239
 30
0.0
 10
22.51221453968585
 20
30.45758951017388
 30
0.0
 10
21.45628728820246
 20
30.57132904724393
 30
0.0
 10
20.92767847433364
 20
30.62205030206148
 30
0.0
 10
19.86921506354524
 20
30.70903082399981
 30
0.0
 10
19.33938259096606
 20
30.7452719214021
 30
0.0
 10
18.54407131681123
 20
30.7884829537251
 30
0.0
 10
18.27882967941018
 20
30.8010437402343
 30
0.0
 10
17.74820753208118
 20
30.82264446437489
 30
0.0
 10
17.48289810048645
 20
30.83168376854273
 30
0.0
 10
17.08486712351574
 20
30.84284499842127
 30
0.0
 10
16.95216241769731
 20
30.84616711778248
 30
0.0
 10
16.68658641219294
 20
30.85207148594682
 30
0.0
 10
16.55368077647424
 20
30.85465370587494
 30
0.0
 10
16.35478740479687
 20
30.85802330574906
 30
0.0
 10
16.28862347483387
 20
30.85906264511451
 30
0.0
 10
16.15607904852433
 20
30.86098321363843
 30
0.0
 10
16.08951961137287
 20
30.86186443737882
 30
0.0
 10
15.95590331736314
 20
30.86347910935606
 30
0.0
 10
15.88908034947146
 20
30.86421255975219
 30
0.0
 10
15.75754684000238
 20
30.86554285173522
 30
0.0
 10
15.69278756062425
 20
30.86613969372068
 30
0.0
 10
15.59289544020482
 20
30.86694141027684
 30
0.0
 10
15.5591288594894
 20
30.86719306386365
 30
0.0
 10
15.49114039896437
 20
30.86766676124725
 30
0.0
 10
15.45693550667466
 20
30.86788880506442
 30
0.0
 10
15.38969277114728
 20
30.8683048960671
 30
0.0
 10
15.32377598140434
 20
30.86869299062863
 30
0.0
 10
15.26070898490274
 20
30.86902841707592
 30
0.0
 10
15.19704647425396
 20
30.8693392203613
 30
0.0
 10
15.16469186052672
 20
30.86948231027559
 30
0.0
 10
15.09728657525834
 20
30.86974562768134
 30
0.0
 10
15.06223582062249
 20
30.86986585517273
 30
0.0
 10
14.99114731551817
 20
30.87008526085765
 30
0.0
 10
14.95524653974097
 20
30.87018443904682
 30
0.0
 10
14.88677781116525
 20
30.8703636113676
 30
0.0
 10
14.85428395782822
 20
30.87044360549686
 30
0.0
 10
14.79274680431325
 20
30.87058632726956
 30
0.0
 10
14.76369670339627
 20
30.87064905491264
 30
0.0
 10
14.70445277134692
 20
30.87075921363487
 30
0.0
 10
14.64341317879468
 20
30.87085407575756
 30
0.0
 10
14.57259366354071
 20
30.8709223898787
 30
0.0
 10
14.49829788905914
 20
30.8709795054391
 30
0.0
 10
14.4596193839265
 20
30.87100246386864
 30
0.0
 10
14.38328947868678
 20
30.87103931092877
 30
0.0
 10
14.30800492226945
 20
30.8710670881838
 30
0.0
 10
14.20528091010499
 20
30.87108809622482
 30
0.0
 10
14.11445334631519
 20
30.87109516292394
 30
0.0
 10
14.05937958659306
 20
30.87109516744571
 30
0.0
 10
14.03170341505822
 20
30.87109516744573
 30
0.0
  0
LINE
  5
4A
330
1F
100
AcDbEntity
  8
0
  6
Continuous
 62
     7
370
    15
100
AcDbLine
 10
40.4116246749
 20
28.9025912304
 30
0.0
 11
39.4116246749
 21
28.9025912304
 31
0.0
  0
LINE
  5
4B
330
1F
100
AcDbEntity
  8
0
  6
Continuous
 62
     7
370
    15
100
AcDbLine
 10
40.4116246749
 20
13.1545597344
 30
0.0
 11
40.4116246749
 21
28.9025912304
 31
0.0
  0
ENDSEC
  0
SECTION
  2
OBJECTS
  0
DICTIONARY
  5
C
330
0
100
AcDbDictionary
281
     1
  3
ACAD_GROUP
350
D
  3
ACAD_LAYOUT
350
1A
  3
ACAD_MLINESTYLE
350
17
  3
ACAD_PLOTSETTINGS
350
19
  3
ACAD_PLOTSTYLENAME
350
E
  0
DICTIONARY
  5
D
102
{ACAD_REACTORS
330
C
102
}
330
C
100
AcDbDictionary
281
     1
  0
DICTIONARY
  5
1A
102
{ACAD_REACTORS
330
C
102
}
330
C
100
AcDbDictionary
281
     1
  3
Layout1
350
1E
  3
Layout2
350
26
  3
Model
350
22
  0
DICTIONARY
  5
17
102
{ACAD_REACTORS
330
C
102
}
330
C
100
AcDbDictionary
281
     1
  3
Standard
350
18
  0
DICTIONARY
  5
19
102
{ACAD_REACTORS
330
C
102
}
330
C
100
AcDbDictionary
281
     1
  0
ACDBDICTIONARYWDFLT
  5
E
102
{ACAD_REACTORS
330
C
102
}
330
C
100
AcDbDictionary
281
     1
  3
Normal
350
F
100
AcDbDictionaryWithDefault
340
F
  0
LAYOUT
  5
1E
102
{ACAD_REACTORS
330
1A
102
}
330
1A
100
AcDbPlotSettings
  1

  2
none_device
  4

  6

 40
0.0
 41
0.0
 42
0.0
 43
0.0
 44
0.0
 45
0.0
 46
0.0
 47
0.0
 48
0.0
 49
0.0
140
0.0
141
0.0
142
1.0
143
1.0
 70
   688
 72
     0
 73
     0
 74
     5
  7

 75
    16
147
1.0
148
0.0
149
0.0
100
AcDbLayout
  1
Layout1
 70
     1
 71
     1
 10
0.0
 20
0.0
 11
12.0
 21
9.0
 12
0.0
 22
0.0
 32
0.0
 14
1.0000000000E+20
 24
1.0000000000E+20
 34
1.0000000000E+20
 15
-1.0000000000E+20
 25
-1.0000000000E+20
 35
-1.0000000000E+20
146
0.0
 13
0.0
 23
0.0
 33
0.0
 16
1.0
 26
0.0
 36
0.0
 17
0.0
 27
1.0
 37
0.0
 76
     0
330
1B
  0
LAYOUT
  5
26
102
{ACAD_REACTORS
330
1A
102
}
330
1A
100
AcDbPlotSettings
  1

  2
none_device
  4

  6

 40
0.0
 41
0.0
 42
0.0
 43
0.0
 44
0.0
 45
0.0
 46
0.0
 47
0.0
 48
0.0
 49
0.0
140
0.0
141
0.0
142
1.0
143
1.0
 70
   688
 72
     0
 73
     0
 74
     5
  7

 75
    16
147
1.0
148
0.0
149
0.0
100
AcDbLayout
  1
Layout2
 70
     1
 71
     2
 10
0.0
 20
0.0
 11
0.0
 21
0.0
 12
0.0
 22
0.0
 32
0.0
 14
0.0
 24
0.0
 34
0.0
 15
0.0
 25
0.0
 35
0.0
146
0.0
 13
0.0
 23
0.0
 33
0.0
 16
1.0
 26
0.0
 36
0.0
 17
0.0
 27
1.0
 37
0.0
 76
     0
330
23
  0
LAYOUT
  5
22
102
{ACAD_REACTORS
330
1A
102
}
330
1A
100
AcDbPlotSettings
  1

  2
none_device
  4

  6

 40
0.0
 41
0.0
 42
0.0
 43
0.0
 44
0.0
 45
0.0
 46
0.0
 47
0.0
 48
0.0
 49
0.0
140
0.0
141
0.0
142
1.0
143
1.0
 70
  1712
 72
     0
 73
     0
 74
     0
  7

 75
     0
147
1.0
148
0.0
149
0.0
100
AcDbLayout
  1
Model
 70
     1
 71
     0
 10
0.0
 20
0.0
 11
55.0
 21
42.5
 12
0.0
 22
0.0
 32
0.0
 14
0.0
 24
0.0
 34
0.0
 15
55.0
 25
42.5
 35
0.0
146
0.0
 13
0.0
 23
0.0
 33
0.0
 16
1.0
 26
0.0
 36
0.0
 17
0.0
 27
1.0
 37
0.0
 76
     0
330
1F
331
29
  0
MLINESTYLE
  5
18
102
{ACAD_REACTORS
330
17
102
}
330
17
100
AcDbMlineStyle
  2
Standard
 70
     0
  3

 62
   256
 51
90.0
 52
90.0
 71
     2
 49
0.5
 62
   256
  6
BYLAYER
 49
-0.5
 62
   256
  6
BYLAYER
  0
ACDBPLACEHOLDER
  5
F
102
{ACAD_REACTORS
330
E
102
}
330
E
  0
ENDSEC
  0
EOF
